<svg width="400" height="400" viewBox="0 0 279.92 400" xmlns="http://www.w3.org/2000/svg" xmlns:xlink="http://www.w3.org/1999/xlink" id="svg" stroke="#000000" overflow="hidden"><defs id="defs73"></defs><path d="M136.071 21.04-13.0808 107.153C-15.4679 108.541-16.9443 111.087-16.9632 113.848L-16.9632 286.116C-16.9588 288.892-15.4806 291.457-13.0808 292.852L136.071 378.951C138.475 380.35 141.445 380.35 143.849 378.951L293.001 292.852C295.401 291.457 296.879 288.892 296.883 286.116L296.883 113.848C296.864 111.087 295.388 108.541 293.001 107.153L143.849 21.04C141.442 19.6533 138.478 19.6533 136.071 21.04Z" id="path28" stroke="none" stroke-width="1.37189"/><g id="B" transform="matrix(1.37189 0 0 1.37189 -52.7146 5.46911)"><path d="M92.83 76.34 36.88 76.34C33.7486 76.3583 31.225 78.9117 31.2433 82.0431 31.249 83.0252 31.5098 83.989 32 84.84L60 133.3C61.5661 136.012 65.0339 136.94 67.7456 135.374 68.6071 134.877 69.3225 134.161 69.82 133.3L97.82 84.84C99.3833 82.1266 98.4509 78.6598 95.7376 77.0965 94.854 76.5875 93.8496 76.3261 92.83 76.34Z" id="path29" stroke-width="4" stroke-miterlimit="10" fill="#FFFFFF"/><path d="M74.67 141.8 130.67 141.8C133.801 141.798 136.339 139.258 136.337 136.127 136.336 135.135 136.075 134.16 135.58 133.3L107.58 84.84C106.014 82.1283 102.546 81.1996 99.8344 82.7656 98.9729 83.2631 98.2575 83.9785 97.76 84.84L69.76 133.3C68.197 136.014 69.1297 139.48 71.8432 141.043 72.703 141.538 73.6778 141.799 74.67 141.8Z" id="path30" stroke-width="4" stroke-miterlimit="10" fill="#FFFFFF"/><path d="M168.42 76.34 112.47 76.34C109.339 76.3418 106.801 78.8818 106.803 82.0132 106.804 83.0055 107.065 83.9802 107.56 84.84L135.56 133.3C137.12 136.009 140.58 136.941 143.289 135.381 144.154 134.883 144.872 134.165 145.37 133.3L173.37 84.84C174.933 82.1265 174 78.6597 171.287 77.0967 170.415 76.5946 169.426 76.3335 168.42 76.34Z" id="path31" stroke-width="4" stroke-miterlimit="10" fill="#FFFFFF"/><path d="M150.26 141.8 206.26 141.8C209.391 141.798 211.929 139.258 211.927 136.127 211.926 135.135 211.665 134.16 211.17 133.3L183.17 84.84C181.604 82.1283 178.136 81.1996 175.424 82.7656 174.563 83.2631 173.848 83.9785 173.35 84.84L145.35 133.3C143.787 136.014 144.72 139.48 147.433 141.043 148.293 141.538 149.268 141.799 150.26 141.8Z" id="path32" stroke-width="4" stroke-miterlimit="10" fill="#FFFFFF"/><path d="M244 76.34 188.06 76.34C184.929 76.3418 182.391 78.8818 182.393 82.0132 182.394 83.0055 182.655 83.9802 183.15 84.84L211.15 133.3C212.716 136.012 216.184 136.94 218.896 135.374 219.757 134.877 220.472 134.161 220.97 133.3L248.97 84.84C250.533 82.1266 249.601 78.6598 246.887 77.0966 246.01 76.5911 245.013 76.3298 244 76.34Z" id="path33" stroke-width="4" stroke-miterlimit="10" fill="#FFFFFF"/><path d="M130.63 141.8 74.63 141.8C71.4985 141.802 68.9614 144.342 68.9632 147.473 68.9638 148.465 69.2248 149.44 69.72 150.3L97.72 198.76C99.2861 201.472 102.754 202.4 105.466 200.834 106.327 200.337 107.042 199.621 107.54 198.76L135.54 150.3C137.103 147.586 136.17 144.12 133.457 142.557 132.597 142.062 131.622 141.801 130.63 141.8Z" id="path34" stroke-width="4" stroke-miterlimit="10" fill="#FFFFFF"/><path d="M112.47 207.26 168.42 207.26C171.551 207.258 174.089 204.718 174.087 201.587 174.086 200.595 173.825 199.62 173.33 198.76L145.33 150.3C143.77 147.591 140.31 146.659 137.601 148.219 136.736 148.717 136.018 149.435 135.52 150.3L107.52 198.76C105.957 201.473 106.89 204.94 109.603 206.503 110.475 207.005 111.464 207.267 112.47 207.26Z" id="path35" stroke-width="4" stroke-miterlimit="10" fill="#FFFFFF"/><path d="M206.22 141.8 150.22 141.8C147.089 141.802 144.551 144.342 144.553 147.473 144.554 148.465 144.815 149.44 145.31 150.3L173.31 198.76C174.876 201.472 178.344 202.4 181.056 200.834 181.917 200.337 182.632 199.621 183.13 198.76L211.13 150.3C212.693 147.586 211.76 144.12 209.047 142.557 208.187 142.062 207.212 141.801 206.22 141.8Z" id="path36" stroke-width="4" stroke-miterlimit="10" fill="#FFFFFF"/><path d="M168.42 207.26 112.47 207.26C109.339 207.262 106.801 209.802 106.803 212.933 106.804 213.925 107.065 214.9 107.56 215.76L135.56 264.22C137.126 266.932 140.594 267.86 143.306 266.294 144.167 265.797 144.882 265.081 145.38 264.22L173.38 215.76C174.943 213.047 174.011 209.58 171.297 208.017 170.422 207.513 169.429 207.252 168.42 207.26Z" id="path37" stroke-width="4" stroke-miterlimit="10" fill="#FFFFFF"/></g><path d="M74.6376 110.199-2.11941 110.199C-6.41534 110.224-9.87749 113.727-9.85235 118.023-9.84446 119.37-9.48674 120.692-8.81422 121.86L29.5986 188.342C31.7471 192.062 36.5046 193.336 40.2247 191.187 41.4065 190.505 42.388 189.523 43.0705 188.342L81.4833 121.86C83.628 118.138 82.3489 113.381 78.6265 111.237 77.4144 110.538 76.0364 110.18 74.6376 110.199Z" id="path38" stroke-width="5.48755" stroke-miterlimit="10"/><path d="M49.7242 200.003 126.55 200.003C130.846 200 134.326 196.516 134.324 192.22 134.323 190.858 133.965 189.521 133.286 188.342L94.873 121.86C92.7245 118.14 87.967 116.866 84.2468 119.014 83.065 119.697 82.0836 120.678 81.401 121.86L42.9882 188.342C40.844 192.064 42.1236 196.82 45.8462 198.964 47.0257 199.644 48.3629 200.002 49.7242 200.003Z" id="path39" stroke-width="5.48755" stroke-miterlimit="10" fill="#808080"/><path d="M178.339 110.199 101.581 110.199C97.2855 110.201 93.8049 113.686 93.8073 117.982 93.8081 119.343 94.1661 120.68 94.8455 121.86L133.258 188.342C135.398 192.058 140.146 193.336 143.862 191.196 145.049 190.513 146.033 189.528 146.717 188.342L185.129 121.86C187.274 118.137 185.994 113.381 182.272 111.237 181.076 110.548 179.718 110.19 178.339 110.199Z" id="path40" stroke-width="5.48755" stroke-miterlimit="10" fill="#808080"/><path d="M153.425 200.003 230.251 200.003C234.547 200 238.027 196.516 238.025 192.22 238.024 190.858 237.666 189.521 236.987 188.342L198.574 121.86C196.425 118.14 191.668 116.866 187.948 119.014 186.766 119.697 185.784 120.678 185.102 121.86L146.689 188.342C144.545 192.064 145.824 196.82 149.547 198.964 150.727 199.644 152.064 200.002 153.425 200.003Z" id="path41" stroke-width="5.48755" stroke-miterlimit="10" fill="#808080"/><path d="M282.026 110.199 205.282 110.199C200.986 110.201 197.506 113.686 197.508 117.982 197.509 119.343 197.867 120.68 198.546 121.86L236.959 188.342C239.108 192.062 243.865 193.336 247.585 191.187 248.767 190.505 249.749 189.523 250.431 188.342L288.844 121.86C290.988 118.137 289.709 113.381 285.987 111.237 284.783 110.543 283.415 110.185 282.026 110.199Z" id="path42" stroke-width="5.48755" stroke-miterlimit="10" fill="#FFFFFF"/><path d="M126.495 200.003 49.6693 200.003C45.3733 200.005 41.8927 203.49 41.8952 207.786 41.8959 209.147 42.2539 210.484 42.9333 211.664L81.3462 278.145C83.4946 281.865 88.2521 283.14 91.9723 280.991 93.1541 280.309 94.1355 279.327 94.8181 278.145L133.231 211.664C135.375 207.941 134.096 203.185 130.373 201.041 129.193 200.361 127.856 200.003 126.495 200.003Z" id="path43" stroke-width="5.48755" stroke-miterlimit="10" fill="#808080"/><path d="M101.581 289.806 178.339 289.806C182.635 289.804 186.115 286.319 186.113 282.023 186.112 280.662 185.754 279.325 185.074 278.145L146.662 211.664C144.522 207.947 139.774 206.669 136.058 208.809 134.871 209.492 133.887 210.477 133.203 211.664L94.7906 278.145C92.6463 281.868 93.9258 286.624 97.6484 288.768 98.8441 289.457 100.202 289.815 101.581 289.806Z" id="path44" stroke-width="5.48755" stroke-miterlimit="10" fill="#808080"/><path d="M230.196 200.003 153.37 200.003C149.074 200.005 145.594 203.49 145.596 207.786 145.597 209.147 145.955 210.484 146.634 211.664L185.047 278.145C187.196 281.865 191.953 283.14 195.673 280.991 196.855 280.309 197.836 279.327 198.519 278.145L236.932 211.664C239.076 207.941 237.796 203.185 234.074 201.041 232.894 200.361 231.557 200.003 230.196 200.003Z" id="path45" stroke-width="5.48755" stroke-miterlimit="10" fill="#808080"/><path d="M178.339 289.806 101.581 289.806C97.2855 289.809 93.8049 293.293 93.8073 297.589 93.8081 298.951 94.1661 300.288 94.8455 301.467L133.258 367.949C135.407 371.669 140.164 372.943 143.884 370.795 145.066 370.112 146.048 369.131 146.73 367.949L185.143 301.467C187.287 297.745 186.008 292.989 182.286 290.844 181.086 290.153 179.723 289.795 178.339 289.806Z" id="path46" stroke-width="5.48755" stroke-miterlimit="10"/><path d="M102.624 50.3161 177.296 50.3161C179.448 50.3037 181.182 48.5494 181.17 46.3977 181.162 45.0229 180.43 43.7541 179.244 43.0588L145.784 23.7564C142.176 21.6705 137.73 21.6705 134.123 23.7564L100.676 43.0588C98.8197 44.147 98.197 46.534 99.2852 48.3904 99.9805 49.5764 101.249 50.3082 102.624 50.3161Z" id="path47" stroke-width="2.74377" stroke-miterlimit="10"/><path d="M50.7668 80.2644 125.452 80.2644C127.596 80.2727 129.341 78.5412 129.35 76.397 129.355 74.9955 128.605 73.6999 127.387 73.0071L91.992 52.566C89.5845 51.1793 86.6209 51.1793 84.2134 52.566L48.805 73.0071C46.941 74.0668 46.2891 76.437 47.3488 78.301 48.0465 79.5282 49.3553 80.2799 50.7668 80.2644Z" id="path48" stroke-width="2.74377" stroke-miterlimit="10" fill="#FFFF00"/><path d="M177.296 50.3161 102.624 50.3161C100.472 50.3021 98.7167 52.0351 98.7028 54.1869 98.6936 55.5983 99.4485 56.9042 100.676 57.6008L136.071 78.0419C138.478 79.4286 141.442 79.4286 143.849 78.0419L179.244 57.6008C181.115 56.5389 181.772 54.1608 180.71 52.2893 180.013 51.0618 178.707 50.3069 177.296 50.3161Z" id="path49" stroke-width="2.74377" stroke-miterlimit="10" fill="#FF0000"/><path d="M154.44 80.2644 229.126 80.2644C231.27 80.2727 233.015 78.5412 233.023 76.397 233.029 74.9955 232.278 73.6999 231.06 73.0071L195.665 52.566C193.262 51.1817 190.304 51.1817 187.901 52.566L152.506 73.0071C150.642 74.0671 149.99 76.4373 151.05 78.3012 151.743 79.5195 153.039 80.2698 154.44 80.2644Z" id="path50" stroke-width="2.74377" stroke-miterlimit="10" fill="#FFFF00"/><path d="M-1.07678 110.199 73.595 110.199C75.7467 110.187 77.4811 108.432 77.4688 106.281 77.4609 104.906 76.7291 103.637 75.5431 102.942L40.1484 82.5005C37.7409 81.1138 34.7773 81.1138 32.3698 82.5005L-3.02486 102.942C-4.88119 104.03-5.50387 106.417-4.41565 108.273-3.72038 109.459-2.45154 110.191-1.07678 110.199Z" id="path51" stroke-width="2.74377" stroke-miterlimit="10"/><path d="M125.452 80.2506 50.7668 80.2506C48.6227 80.2269 46.8654 81.9459 46.8417 84.0899 46.8261 85.5015 47.5779 86.8102 48.805 87.5079L84.2134 107.949C86.6209 109.336 89.5845 109.336 91.992 107.949L127.387 87.5079C129.251 86.4479 129.902 84.0777 128.842 82.2138 128.149 80.9955 126.854 80.2452 125.452 80.2506Z" id="path52" stroke-width="2.74377" stroke-miterlimit="10"/><path d="M102.624 110.199 177.296 110.199C179.448 110.187 181.182 108.432 181.17 106.281 181.162 104.906 180.43 103.637 179.244 102.942L143.849 82.5005C141.442 81.1138 138.478 81.1138 136.071 82.5005L100.676 102.942C98.8197 104.03 98.197 106.417 99.2852 108.273 99.9805 109.459 101.249 110.191 102.624 110.199Z" id="path53" stroke-width="2.74377" stroke-miterlimit="10" fill="#FFFF00"/><path d="M229.153 80.2506 154.44 80.2506C152.296 80.2423 150.551 81.9738 150.543 84.118 150.537 85.5194 151.288 86.8151 152.506 87.5079L187.901 107.949C190.304 109.333 193.262 109.333 195.665 107.949L231.06 87.5079C232.924 86.4479 233.576 84.0777 232.516 82.2138 231.828 81.004 230.545 80.2551 229.153 80.2506Z" id="path54" stroke-width="2.74377" stroke-miterlimit="10" fill="#0000FF"/><path d="M206.325 110.199 280.997 110.199C283.149 110.187 284.883 108.432 284.871 106.281 284.863 104.906 284.131 103.637 282.945 102.942L247.55 82.5005C245.143 81.1138 242.179 81.1138 239.772 82.5005L204.377 102.942C202.521 104.03 201.898 106.417 202.986 108.273 203.681 109.459 204.95 110.191 206.325 110.199Z" id="path55" stroke-width="2.74377" stroke-miterlimit="10" fill="#0000FF"/><path d="M288.254 122.765 250.925 187.436C249.845 189.289 250.472 191.666 252.325 192.745 253.533 193.449 255.026 193.449 256.234 192.745L291.629 172.304C294.033 170.913 295.513 168.346 295.511 165.568L295.511 124.7C295.52 122.556 293.788 120.811 291.644 120.802 290.243 120.797 288.947 121.547 288.254 122.765Z" id="path56" stroke-width="2.74377" stroke-miterlimit="10" fill="#FF0000"/><path d="M236.41 212.624 199.068 277.24C197.953 279.072 198.534 281.46 200.366 282.575 201.597 283.323 203.141 283.329 204.377 282.59L239.772 262.163C242.179 260.773 243.663 258.206 243.668 255.427L243.668 214.517C243.626 212.366 241.848 210.656 239.696 210.698 238.34 210.724 237.096 211.454 236.41 212.624Z" id="path57" stroke-width="2.74377" stroke-miterlimit="10" fill="#FF0000"/><path d="M250.925 247.305 288.254 182.635C289.334 180.782 288.707 178.405 286.854 177.325 285.646 176.621 284.153 176.621 282.945 177.325L247.55 197.753C245.148 199.146 243.669 201.712 243.668 204.489L243.668 245.357C243.68 247.509 245.434 249.243 247.586 249.231 248.961 249.223 250.23 248.491 250.925 247.305Z" id="path58" stroke-width="2.74377" stroke-miterlimit="10"/><path d="M288.254 182.635 250.925 247.305C249.845 249.158 250.472 251.535 252.325 252.614 253.533 253.318 255.026 253.318 256.234 252.614L291.629 232.187C294.029 230.792 295.507 228.227 295.511 225.451L295.511 184.583C295.499 182.431 293.745 180.696 291.593 180.709 290.218 180.717 288.949 181.449 288.254 182.635Z" id="path59" stroke-width="2.74377" stroke-miterlimit="10" fill="#FF0000"/><path d="M184.622 302.373 147.293 367.043C146.213 368.896 146.84 371.273 148.692 372.353 149.9 373.057 151.394 373.057 152.602 372.353L187.997 351.925C190.401 350.534 191.88 347.967 191.879 345.189L191.879 304.321C191.867 302.169 190.112 300.435 187.961 300.447 186.586 300.455 185.317 301.187 184.622 302.373Z" id="path60" stroke-width="2.74377" stroke-miterlimit="10"/><path d="M199.068 337.109 236.41 272.438C237.49 270.586 236.863 268.209 235.011 267.129 233.803 266.425 232.309 266.425 231.101 267.129L195.707 287.556C193.299 288.946 191.815 291.513 191.81 294.292L191.81 335.161C191.823 337.313 193.577 339.047 195.729 339.035 197.104 339.027 198.372 338.295 199.068 337.109Z" id="path61" stroke-width="2.74377" stroke-miterlimit="10"/><path d="M236.41 272.438 199.068 337.109C197.988 338.962 198.615 341.339 200.467 342.418 201.675 343.122 203.169 343.122 204.377 342.418L239.772 321.991C242.181 320.603 243.666 318.035 243.668 315.255L243.668 274.359C243.641 272.207 241.874 270.485 239.723 270.512 238.357 270.53 237.101 271.26 236.41 272.438Z" id="path62" stroke-width="2.74377" stroke-miterlimit="10" fill="#FF0000"/><path d="M250.925 307.174 288.254 242.504C289.334 240.651 288.707 238.274 286.854 237.194 285.646 236.49 284.153 236.49 282.945 237.194L247.55 257.622C245.15 259.017 243.672 261.582 243.668 264.358L243.668 305.226C243.68 307.378 245.434 309.112 247.586 309.1 248.961 309.092 250.23 308.36 250.925 307.174Z" id="path63" stroke-width="2.74377" stroke-miterlimit="10" fill="#FF0000"/><path d="M288.268 242.504 250.925 307.174C249.845 309.027 250.472 311.404 252.325 312.484 253.533 313.188 255.026 313.188 256.234 312.484L289.681 293.167C293.292 291.089 295.516 287.237 295.511 283.07L295.511 244.452C295.514 242.308 293.778 240.567 291.634 240.564 290.246 240.563 288.962 241.302 288.268 242.504Z" id="path64" stroke-width="2.74377" stroke-miterlimit="10" fill="#FF0000"/><path d="M29.0087 187.436-8.33406 122.765C-9.42228 120.909-11.8093 120.286-13.6656 121.375-14.8517 122.07-15.5835 123.339-15.5913 124.713L-15.5913 165.582C-15.5869 168.361-14.1023 170.928-11.6952 172.318L23.6995 192.745C25.5521 193.825 27.9291 193.198 29.0087 191.346 29.7127 190.138 29.7127 188.644 29.0087 187.436Z" id="path65" stroke-width="2.74377" stroke-miterlimit="10"/><path d="M29.0087 247.305-8.33406 182.635C-9.42228 180.778-11.8093 180.156-13.6656 181.244-14.8517 181.939-15.5835 183.208-15.5913 184.583L-15.5913 225.451C-15.5897 228.231-14.1044 230.799-11.6952 232.187L23.6995 252.614C25.5521 253.694 27.9291 253.067 29.0087 251.215 29.7127 250.007 29.7127 248.513 29.0087 247.305Z" id="path66" stroke-width="2.74377" stroke-miterlimit="10" fill="#0000FF"/><path d="M-8.33406 182.635 29.0087 247.305C30.0969 249.162 32.4839 249.784 34.3403 248.696 35.5263 248.001 36.2581 246.732 36.266 245.357L36.266 204.489C36.2559 201.703 34.7601 199.135 32.3424 197.753L-3.0523 177.325C-4.91794 176.268-7.28712 176.924-8.34402 178.79-9.02009 179.983-9.01631 181.445-8.33406 182.635Z" id="path67" stroke-width="2.74377" stroke-miterlimit="10"/><path d="M80.8523 277.24 43.5232 212.624C42.435 210.768 40.048 210.145 38.1917 211.233 37.0057 211.928 36.2738 213.197 36.266 214.572L36.266 255.441C36.2647 258.218 37.7445 260.785 40.1484 262.176L75.5431 282.59C77.405 283.669 79.7888 283.034 80.8675 281.172 81.5727 279.955 81.5669 278.452 80.8523 277.24Z" id="path68" stroke-width="2.74377" stroke-miterlimit="10" fill="#0000FF"/><path d="M29.0087 307.188-8.33406 242.517C-9.39404 240.653-11.7643 240.002-13.6282 241.062-14.8465 241.755-15.5968 243.05-15.5913 244.452L-15.5913 283.084C-15.5879 287.252-13.3598 291.102-9.7471 293.181L23.6995 312.497C25.5521 313.577 27.9291 312.95 29.0087 311.098 29.7127 309.89 29.7127 308.396 29.0087 307.188Z" id="path69" stroke-width="2.74377" stroke-miterlimit="10" fill="#0000FF"/><path d="M-8.33406 242.504 29.0087 307.174C30.0687 309.038 32.4389 309.69 34.3028 308.63 35.5211 307.937 36.2714 306.641 36.266 305.24L36.266 264.372C36.2645 261.584 34.7663 259.012 32.3424 257.636L-3.0523 237.194C-4.91794 236.138-7.28712 236.793-8.34402 238.659-9.02009 239.852-9.01631 241.314-8.33406 242.504Z" id="path70" stroke-width="2.74377" stroke-miterlimit="10" fill="#0000FF"/><path d="M80.8523 337.123 43.5232 272.452C42.4633 270.588 40.093 269.936 38.2291 270.996 37.0194 271.684 36.2704 272.967 36.266 274.359L36.266 315.227C36.2647 318.005 37.7445 320.572 40.1484 321.963L75.5431 342.404C77.4032 343.471 79.7758 342.828 80.8423 340.967 81.5246 339.778 81.5283 338.316 80.8523 337.123Z" id="path71" stroke-width="2.74377" stroke-miterlimit="10" fill="#0000FF"/><path d="M43.5232 272.452 80.8523 337.123C81.9405 338.979 84.3275 339.602 86.1839 338.513 87.3699 337.818 88.1017 336.549 88.1096 335.175L88.1096 294.306C88.1108 291.529 86.631 288.961 84.2271 287.57L48.805 267.129C46.923 266.086 44.5517 266.766 43.5085 268.648 42.852 269.832 42.8576 271.273 43.5232 272.452Z" id="path72" stroke-width="2.74377" stroke-miterlimit="10"/><path d="M132.71 367.057 95.3668 302.386C94.3069 300.523 91.9366 299.871 90.0727 300.931 88.8544 301.624 88.1041 302.919 88.1096 304.321L88.1096 345.189C88.1054 347.971 89.5924 350.542 92.0057 351.925L127.4 372.366C129.253 373.446 131.63 372.819 132.71 370.967 133.414 369.759 133.414 368.265 132.71 367.057Z" id="path73" stroke-width="2.74377" stroke-miterlimit="10"/></svg>